<?xml version="1.0" encoding="UTF-8"?>
<!DOCTYPE svg PUBLIC "-//W3C//DTD SVG 1.1//EN" "http://www.w3.org/Graphics/SVG/1.1/DTD/svg11.dtd">
<svg version="1.1" xmlns="http://www.w3.org/2000/svg" xmlns:xlink="http://www.w3.org/1999/xlink" x="0" y="0" width="1100" height="382" viewBox="0, 0, 1100, 382">
  <g id="Ebene_3">
    <path d="M0,0 L1100,0 L1100,382 L0,382 L0,0 z" fill="#FFFFFF"/>
    <path d="M365.23,275.18 L365.23,103.89 L216.61,18 L68,103.89 L68,275.19 L216.61,361.07 L365.22,275.19 L365.22,275.19 z M208.46,219.7 C208.84,234.53 212.3,261.78 212.3,261.78 C212.3,261.78 222.45,260.85 227.5,263.05 C231.03,264.56 243.9,267.36 248.79,268.99 C253.68,270.62 257.95,274.39 269.38,275.2 C271.08,275.34 295.86,285.44 297.66,286.7 L304.15,291.43 L217.11,341.26 L117.19,284.86 C122.79,282.58 126.73,280.99 126.73,280.99 C148.52,279.11 139.18,276.66 147.7,273.27 C157.61,269.33 153.69,268.21 158.15,266.53 C163.29,264.6 171.56,261.66 177.07,260.73 C182.58,259.8 192,261.83 192,261.83 C192,261.83 188.59,220.8 192.17,194.86 C196.58,155.4 212.26,125.97 212.26,125.97 C212.26,125.97 199.82,127.58 193.42,132.92 C187.48,137.44 180.04,148.64 180.04,148.64 C180.04,148.64 180.47,139.05 182.31,131.88 C183.54,127.16 187.59,122.52 187.59,122.52 C187.59,122.52 175.92,120.08 164.59,124.77 C153.23,129.47 140.74,145.42 140.74,145.42 C140.74,145.42 141.78,117.72 162.34,105.45 C172.95,99.13 182.13,97.65 188.55,97.71 C185.92,96.25 183.09,94.96 180.18,94.08 C167.37,90.26 148.57,98.52 148.57,98.52 C148.57,98.52 154.16,79.09 181.35,79.75 C188.74,79.4 196.53,82.3 203.3,85.95 C204.85,82.91 206.73,79.86 208.95,77.38 C219.11,66.02 233.77,65.65 233.77,65.65 C233.77,65.65 226.41,71.96 225.5,78.7 C224.58,85.44 226.27,89.89 226.27,89.89 C226.27,89.89 238.39,71.11 254.32,70.33 C273.25,69.4 284.44,82.36 284.44,82.36 C284.44,82.36 277.34,80.58 270.7,81.23 C264.09,81.88 258.71,86 258.71,86 C258.71,86 284.45,86.41 294.62,99.19 C310.47,116.21 300.84,132.63 300.84,132.63 C300.84,132.63 295.63,115.11 285.86,109.4 C276.05,103.72 262.04,104.31 262.04,104.31 C262.04,104.31 292.4,116.82 294.09,142.55 C296.11,173.37 289.31,178.71 289.31,178.71 C289.31,178.71 283.77,146.93 271.14,134.61 C266.08,129.83 258.98,127.35 252.01,126.1 C254.61,129.44 256.7,133.06 257.8,136.89 C267.06,161.87 249.96,173.21 249.96,173.21 C249.96,173.21 252.03,153.18 244.26,142.51 C239.44,135.93 231.92,130.91 226.87,128.02 C224.8,131.99 222.89,137.5 220.01,145.43 C209.31,175.47 207.97,200.54 208.47,219.69 L208.47,219.69 z" fill="#E51736"/>
    <path d="M208.46,219.7 C208.84,234.53 212.3,261.78 212.3,261.78 C212.3,261.78 222.45,260.85 227.5,263.05 C231.03,264.56 243.9,267.36 248.79,268.99 C253.68,270.62 257.95,274.39 269.38,275.2 C271.08,275.34 295.86,285.44 297.66,286.7 L304.15,291.43 L217.11,341.26 L117.19,284.86 C122.79,282.58 126.73,280.99 126.73,280.99 C148.52,279.11 139.18,276.66 147.7,273.27 C157.61,269.33 153.69,268.21 158.15,266.53 C163.29,264.6 171.56,261.66 177.07,260.73 C182.58,259.8 192,261.83 192,261.83 C192,261.83 188.59,220.8 192.17,194.86 C196.58,155.4 212.26,125.97 212.26,125.97 C212.26,125.97 199.82,127.58 193.42,132.92 C187.48,137.44 180.04,148.64 180.04,148.64 C180.04,148.64 180.47,139.05 182.31,131.88 C183.54,127.16 187.59,122.52 187.59,122.52 C187.59,122.52 175.92,120.08 164.59,124.77 C153.23,129.47 140.74,145.42 140.74,145.42 C140.74,145.42 141.78,117.72 162.34,105.45 C172.95,99.13 182.13,97.65 188.55,97.71 C185.92,96.25 183.09,94.96 180.18,94.08 C167.37,90.26 148.57,98.52 148.57,98.52 C148.57,98.52 154.16,79.09 181.35,79.75 C188.74,79.4 196.53,82.3 203.3,85.95 C204.85,82.91 206.73,79.86 208.95,77.38 C219.11,66.02 233.77,65.65 233.77,65.65 C233.77,65.65 226.41,71.96 225.5,78.7 C224.58,85.44 226.27,89.89 226.27,89.89 C226.27,89.89 238.39,71.11 254.32,70.33 C273.25,69.4 284.44,82.36 284.44,82.36 C284.44,82.36 277.34,80.58 270.7,81.23 C264.09,81.88 258.71,86 258.71,86 C258.71,86 284.45,86.41 294.62,99.19 C310.47,116.21 300.84,132.63 300.84,132.63 C300.84,132.63 295.63,115.11 285.86,109.4 C276.05,103.72 262.04,104.31 262.04,104.31 C262.04,104.31 292.4,116.82 294.09,142.55 C296.11,173.37 289.31,178.71 289.31,178.71 C289.31,178.71 283.77,146.93 271.14,134.61 C266.08,129.83 258.98,127.35 252.01,126.1 C254.61,129.44 256.7,133.06 257.8,136.89 C267.06,161.87 249.96,173.21 249.96,173.21 C249.96,173.21 252.03,153.18 244.26,142.51 C239.44,135.93 231.92,130.91 226.87,128.02 C224.8,131.99 222.89,137.5 220.01,145.43 C209.31,175.47 207.97,200.54 208.47,219.69 L208.47,219.69 z" fill="#FFFFFF"/>
    <path d="M1019.06,274.39 L1031.52,265.11 L1025.16,265.11 L1006.77,278.63 L1006.77,254.51 L1002.74,254.51 L1002.74,294.26 L1006.77,294.26 L1006.77,283.66 L1015.83,276.82 L1026.69,294.26 L1031.78,294.26 L1019.06,274.38 L1019.06,274.38 z M1025.88,136.18 C1027.61,136.42 1029.3,136.78 1030.93,137.23 L1030.93,110 C1028.45,109.66 1025.86,109.51 1023.72,109.69 C1012.29,110.66 1006.31,114.48 999.2,122.17 L999.2,111.87 L972.36,111.87 L972.36,191.67 L999.2,191.67 L999.2,142.29 C1006.1,137.24 1015.71,134.75 1025.88,136.18 L1025.88,136.18 z M970.88,254.47 L970.88,265.12 L963.62,265.12 L963.62,268.83 L970.88,268.83 L970.88,287.86 C970.88,293.69 975.39,295.07 979.47,295.07 C981.7,295.07 983.07,294.86 984.72,294.28 L984.72,290.41 C983.77,290.99 982.28,291.37 980.16,291.37 C977.3,291.37 974.96,290.63 974.96,286.76 L974.96,268.84 L984.71,268.84 L984.71,265.13 L974.96,265.13 L974.96,254.48 L970.88,254.48 z M962.2,159.27 C962.35,157.82 962.63,152.46 962.63,149.85 C962.63,128.39 943.04,109.55 914.75,109.55 C886.46,109.55 866.9,127.37 866.08,150.17 C866.05,150.35 866.03,151.8 866.04,151.91 C866.26,174.34 886.13,193.64 914.75,193.64 C936.04,193.64 952.39,182.47 959.18,167.8 L931.69,164.99 C928.27,170.25 922.54,173.92 914.6,173.92 C904.59,173.92 898.07,167.39 895.45,159.28 L962.19,159.28 z M934.34,143.03 L895.45,143.03 C898.06,134.91 904.59,129.26 914.6,129.26 C925.19,129.26 931.87,134.91 934.33,143.03 L934.33,143.03 z M863.04,217.16 L863.04,238.31 C859.81,241.6 856.31,243.24 852.49,243.24 C847.83,243.24 844.28,240.96 844.28,235.87 L844.28,217.16 L840.2,217.16 L840.2,237.41 C840.2,244.3 845.98,247.11 851.54,247.11 C856.2,247.11 859.97,244.94 863.04,241.92 L863.04,246.32 L867.12,246.32 L867.12,217.17 L863.04,217.17 z M841.72,193.63 C848.1,193.63 857.22,192.46 860.98,191.1 L860.98,169.94 C858.75,171.01 851.41,172.01 847.67,172.01 C841.43,172.01 835.19,170.31 835.19,160.88 L835.19,132.3 L860.98,132.3 L860.98,111.84 L835.19,111.84 L835.19,84 L808.35,84 L808.35,111.84 L791.25,111.84 L791.25,132.3 L808.35,132.3 L808.35,167.99 C808.35,189.03 823.73,193.63 841.72,193.63 L841.72,193.63 z M800.6,216.37 C791.48,216.37 784.43,223.37 784.43,231.74 C784.43,240.11 791.48,247.11 801.18,247.11 C809.13,247.11 813.85,243.08 816.13,238.37 L812.15,236.67 C810.51,240.49 807.43,243.56 801.18,243.56 C794.45,243.56 789.41,239.48 788.78,233.06 L816.5,233.06 C816.55,232.58 816.61,231.52 816.61,230.68 C816.61,223.42 809.83,216.37 800.6,216.37 L800.6,216.37 z M800.6,219.92 C806.85,219.92 811.41,224.16 812.15,229.51 L788.93,229.51 C789.88,223.89 794.55,219.92 800.59,219.92 L800.59,219.92 z M766.37,193.63 C772.75,193.63 781.87,192.46 785.63,191.1 L785.63,169.94 C783.4,171.01 776.06,172.01 772.32,172.01 C766.08,172.01 759.84,170.31 759.84,160.88 L759.84,132.3 L785.63,132.3 L785.63,111.84 L759.84,111.84 L759.84,84 L733,84 L733,111.84 L715.9,111.84 L715.9,132.3 L733,132.3 L733,167.99 C733,189.03 748.38,193.63 766.37,193.63 L766.37,193.63 z M716.98,172.9 C715.25,174 713.28,174.19 710.77,174.19 C710.74,174.19 710.71,174.19 710.68,174.19 C710.68,174.19 710.67,174.19 710.66,174.19 C705.88,174.19 704.22,170.68 704.22,165.17 L704.22,133.32 C704.22,117.81 686.24,109.54 661.45,109.54 C645.6,109.54 635.74,110.57 622.44,114.98 L627.37,132.49 C638.4,129.46 646.33,128.06 658.65,128.06 C672.2,128.06 677.66,129.73 677.66,135.18 L677.66,140.28 L665.71,140.28 C661.9,140.41 657.04,140.51 650.86,140.86 C629.84,142.17 616.28,149.27 616.28,165.65 C616.28,184.21 631.72,193.63 646.51,193.63 C661.3,193.63 671.3,188.27 678.69,181.31 C681.2,188.28 687.1,193.19 696.83,193.56 C698.09,193.73 699.53,193.82 701.29,193.82 C705.94,193.82 713.77,192.35 716.96,190.52 L716.96,172.91 L716.96,172.91 z M677.4,165.79 C670.44,173.18 662.03,175.36 654.78,175.36 C647.53,175.36 643.33,170.5 643.33,165.29 C643.33,160.08 646.95,156.23 658.41,155.07 C661.95,154.71 664.66,154.76 668.33,154.71 L677.4,154.71 L677.4,165.79 L677.4,165.79 z M687.87,94.06 C687.87,88.59 683.43,84.15 677.96,84.15 L675.17,84.15 C669.7,84.15 665.26,88.59 665.26,94.06 C665.26,99.53 669.69,103.97 675.17,103.97 L677.96,103.97 C683.43,103.97 687.87,99.53 687.87,94.06 L687.87,94.06 z M659.84,94.06 C659.84,88.59 655.41,84.15 649.93,84.15 L647.14,84.15 C641.67,84.15 637.23,88.59 637.23,94.06 C637.23,99.53 641.66,103.97 647.14,103.97 L649.93,103.97 C655.4,103.97 659.84,99.53 659.84,94.06 L659.84,94.06 z M616.07,233.06 C616.12,232.58 616.18,231.52 616.18,230.68 C616.18,223.42 609.39,216.37 600.17,216.37 C590.95,216.37 584,223.37 584,231.74 C584,240.11 591.05,247.11 600.75,247.11 C608.7,247.11 613.42,243.08 615.7,238.37 L611.72,236.67 C610.08,240.49 607,243.56 600.75,243.56 C594.02,243.56 588.98,239.48 588.35,233.06 L616.07,233.06 z M611.72,229.51 L588.5,229.51 C589.45,223.89 594.12,219.92 600.16,219.92 C606.2,219.92 610.97,224.16 611.71,229.51 L611.71,229.51 z M577.3,191.67 L603.82,191.67 L603.82,84.15 L577.3,84.15 L577.3,191.67 L577.3,191.67 z M573.18,246.32 L577.26,246.32 L577.26,206.57 L573.18,206.57 L573.18,223 C570.74,219.24 566.45,216.37 560.72,216.37 C552.45,216.37 545.24,222.89 545.24,231.74 C545.24,240.59 552.45,247.11 560.72,247.11 C566.45,247.11 570.74,244.3 573.18,240.49 L573.18,246.32 L573.18,246.32 z M573.18,231.74 C573.18,238.26 568.3,243.56 561.47,243.56 C554.64,243.56 549.49,238.58 549.49,231.74 C549.49,224.9 554.79,219.92 561.47,219.92 C568.15,219.92 573.18,225.27 573.18,231.74 L573.18,231.74 z M547.4,135.37 C554.8,131.31 559.73,124.05 559.73,114.62 C559.73,97.21 546.53,84.07 521.13,84.07 L451.34,84.07 L451.34,191.66 L518.81,191.66 C548.85,191.66 566.4,182.67 566.4,159.74 C566.4,146.39 557.84,138.56 547.39,135.36 L547.39,135.36 z M529.39,115.34 C529.39,123.61 523.59,126.22 511.69,126.22 L480.66,126.22 L480.66,104.6 L511.55,104.6 C523.74,104.6 529.4,107.21 529.4,115.34 L529.4,115.34 z M535.07,158.88 C535.07,167.15 529.27,169.76 517.37,169.76 L480.66,169.76 L480.66,148.14 L517.23,148.14 C529.42,148.14 535.08,150.75 535.08,158.88 L535.08,158.88 z M451.28,212.82 L451.28,217.17 L444.66,217.17 L444.66,220.88 L451.28,220.88 L451.28,246.32 L455.36,246.32 L455.36,220.88 L465.54,220.88 L465.54,217.17 L455.36,217.17 L455.36,213.62 C455.36,210.44 457.8,209.49 460.55,209.49 C462.88,209.49 464.53,210.23 465.48,211.13 L466.96,207.53 C465.48,206.63 463.46,205.78 460.28,205.78 C455.99,205.78 451.27,207.64 451.27,212.83 L451.27,212.83 z M407.13,305.24 L409.44,305.24 L409.44,73.83 L407.13,73.83 L407.13,305.24 L407.13,305.24 z M450.7,257.2 L450.7,258.2 C450.7,259.59 451.83,260.72 453.22,260.72 C454.61,260.72 455.74,259.59 455.74,258.2 L455.74,257.2 C455.74,255.81 454.61,254.68 453.22,254.68 C451.83,254.68 450.7,255.81 450.7,257.2 L450.7,257.2 z M455.26,265.12 L451.23,265.12 L451.23,294.27 L455.26,294.27 L455.26,265.12 L455.26,265.12 z M467.69,265.12 L463.66,265.12 L463.66,294.27 L467.69,294.27 L467.69,273.17 C470.87,269.94 474.47,268.19 478.24,268.19 C482.85,268.19 486.46,270.63 486.46,275.56 L486.46,294.27 L490.54,294.27 L490.54,273.97 C490.54,267.24 484.71,264.32 479.2,264.32 C474.69,264.32 470.93,266.44 467.7,269.62 L467.7,265.11 L467.7,265.11 z M479.16,213.16 C480.55,213.16 481.68,212.03 481.68,210.64 L481.68,209.64 C481.68,208.25 480.55,207.12 479.16,207.12 C477.77,207.12 476.64,208.25 476.64,209.64 L476.64,210.64 C476.64,212.03 477.77,213.16 479.16,213.16 L479.16,213.16 z M489.02,213.16 C490.41,213.16 491.54,212.03 491.54,210.64 L491.54,209.64 C491.54,208.25 490.41,207.12 489.02,207.12 C487.63,207.12 486.5,208.25 486.5,209.64 L486.5,210.64 C486.5,212.03 487.63,213.16 489.02,213.16 L489.02,213.16 z M481.97,247.11 C486.64,247.11 490.4,244.94 493.47,241.92 L493.47,246.32 L497.55,246.32 L497.55,217.17 L493.47,217.17 L493.47,238.32 C490.24,241.61 486.74,243.25 482.92,243.25 C478.26,243.25 474.71,240.97 474.71,235.88 L474.71,217.17 L470.63,217.17 L470.63,237.42 C470.63,244.31 476.41,247.12 481.97,247.12 L481.97,247.12 z M502.27,265.12 L495.01,265.12 L495.01,268.83 L502.27,268.83 L502.27,287.86 C502.27,293.69 506.78,295.07 510.86,295.07 C513.09,295.07 514.46,294.86 516.11,294.28 L516.11,290.41 C515.16,290.99 513.67,291.37 511.55,291.37 C508.69,291.37 506.36,290.63 506.36,286.76 L506.36,268.84 L516.11,268.84 L516.11,265.13 L506.36,265.13 L506.36,254.48 L502.28,254.48 L502.28,265.13 L502.28,265.13 z M509.95,246.32 L509.95,225.6 C513.18,221.94 516.47,220.25 519.65,220.25 C521.77,220.25 523.68,220.89 525.16,222.16 L525.16,217.44 C523.99,216.75 522.3,216.38 520.55,216.38 C516.2,216.38 512.97,218.45 509.95,221.84 L509.95,217.18 L505.92,217.18 L505.92,246.33 L509.95,246.33 z M518.93,279.69 C518.93,288.22 525.98,295.06 535.68,295.06 C543.63,295.06 548.35,291.03 550.63,286.32 L546.65,284.62 C545.01,288.44 541.93,291.51 535.68,291.51 C528.95,291.51 523.91,287.43 523.28,281.02 L551,281.02 C551.05,280.54 551.11,279.48 551.11,278.64 C551.11,271.38 544.33,264.33 535.1,264.33 C525.87,264.33 518.93,271.33 518.93,279.7 L518.93,279.7 z M523.43,277.47 C524.38,271.85 529.05,267.88 535.09,267.88 C541.13,267.88 545.9,272.12 546.64,277.47 L523.43,277.47 z M561.84,265.12 L557.81,265.12 L557.81,294.27 L561.84,294.27 L561.84,273.55 C565.07,269.89 568.36,268.2 571.54,268.2 C573.66,268.2 575.57,268.84 577.05,270.11 L577.05,265.39 C575.88,264.7 574.19,264.33 572.44,264.33 C568.09,264.33 564.86,266.4 561.84,269.79 L561.84,265.13 L561.84,265.13 z M586.41,265.12 L582.38,265.12 L582.38,294.27 L586.41,294.27 L586.41,273.17 C589.59,269.94 593.19,268.19 596.96,268.19 C601.57,268.19 605.17,270.63 605.17,275.56 L605.17,294.27 L609.25,294.27 L609.25,273.97 C609.25,267.24 603.42,264.32 597.91,264.32 C593.4,264.32 589.64,266.44 586.41,269.62 L586.41,265.11 L586.41,265.11 z M645.5,217.16 L645.5,238.31 C642.27,241.6 638.77,243.24 634.95,243.24 C630.29,243.24 626.73,240.96 626.73,235.87 L626.73,217.16 L622.65,217.16 L622.65,237.41 C622.65,244.3 628.43,247.11 633.99,247.11 C638.65,247.11 642.42,244.94 645.49,241.92 L645.49,246.32 L649.57,246.32 L649.57,217.17 L645.49,217.17 z M615.68,285.95 C615.68,292.57 621.88,295.07 627.08,295.07 C632.65,295.07 637.15,293.11 640.44,289.45 C640.86,292.58 642.3,295.07 645.58,295.07 C647.28,295.07 648.71,294.49 649.66,293.59 L649.66,290.41 C649.08,291.05 648.23,291.31 647.28,291.31 C645.27,291.31 644.42,290.04 644.42,287.28 L644.42,272.12 C644.42,267.67 639.44,264.33 631.22,264.33 C624.28,264.33 619.67,267.25 616.75,270.43 L619.08,273.4 C622.26,269.69 626.34,267.89 631.43,267.89 C636.84,267.89 640.34,269.8 640.34,272.5 C640.34,275.57 637.11,276.21 628.57,277.06 C621.41,277.75 615.69,279.87 615.69,285.96 L615.69,285.96 z M620.08,285.95 C620.08,282.61 622.84,281.07 629.3,280.44 C633.43,279.96 638.1,279.22 640.33,277.63 L640.33,285.95 C636.94,289.87 632.96,291.62 628.03,291.62 C623.1,291.62 620.08,289.39 620.08,285.95 L620.08,285.95 z M657.1,265.12 L649.84,265.12 L649.84,268.83 L657.1,268.83 L657.1,287.86 C657.1,293.69 661.61,295.07 665.69,295.07 C667.92,295.07 669.3,294.86 670.94,294.28 L670.94,290.41 C669.99,290.99 668.5,291.37 666.38,291.37 C663.52,291.37 661.18,290.63 661.18,286.76 L661.18,268.84 L670.93,268.84 L670.93,265.13 L661.18,265.13 L661.18,254.48 L657.1,254.48 L657.1,265.13 L657.1,265.13 z M666.05,238.79 L666.05,220.87 L675.8,220.87 L675.8,217.16 L666.05,217.16 L666.05,206.51 L661.97,206.51 L661.97,217.16 L654.71,217.16 L654.71,220.87 L661.97,220.87 L661.97,239.9 C661.97,245.73 666.48,247.11 670.56,247.11 C672.79,247.11 674.16,246.9 675.81,246.32 L675.81,242.45 C674.86,243.03 673.37,243.4 671.25,243.4 C668.39,243.4 666.06,242.66 666.06,238.79 L666.06,238.79 z M675.99,257.2 L675.99,258.2 C675.99,259.59 677.12,260.72 678.51,260.72 C679.9,260.72 681.03,259.59 681.03,258.2 L681.03,257.2 C681.03,255.81 679.9,254.68 678.51,254.68 C677.12,254.68 675.99,255.81 675.99,257.2 L675.99,257.2 z M680.54,265.12 L676.51,265.12 L676.51,294.27 L680.54,294.27 L680.54,265.12 L680.54,265.12 z M685.03,224.53 C685.03,221.35 689.01,219.81 693.83,219.81 C698.65,219.81 703.16,221.61 705.23,225.43 L708.62,222.78 C706.18,219.18 700.88,216.37 694.15,216.37 C686.46,216.37 680.74,219.66 680.74,225.12 C680.74,229.78 684.66,231.85 691.66,232.54 L697.44,233.12 C702.16,233.65 704.86,234.71 704.86,238 C704.86,240.97 701.89,243.57 695.59,243.57 C689.76,243.57 685.04,241.18 682.97,236.84 L679.26,239.49 C682.28,244.21 688.53,247.12 695.59,247.12 C703.91,247.12 709.37,243.3 709.37,237.69 C709.37,232.08 704.81,230.06 698.66,229.42 L692.94,228.78 C688.28,228.25 685.04,227.45 685.04,224.54 L685.04,224.54 z M687.36,279.69 C687.36,288.54 694.36,295.06 703.58,295.06 C712.8,295.06 719.75,288.54 719.75,279.69 C719.75,270.84 712.7,264.32 703.58,264.32 C694.46,264.32 687.36,270.84 687.36,279.69 L687.36,279.69 z M691.6,279.69 C691.6,272.75 696.8,267.92 703.58,267.92 C710.36,267.92 715.51,272.74 715.51,279.69 C715.51,286.64 710.21,291.46 703.58,291.46 C696.95,291.46 691.6,286.64 691.6,279.69 L691.6,279.69 z M718.37,231.74 C718.37,224.85 723.19,219.92 730.19,219.92 C735.81,219.92 739.73,222.99 741.32,227.34 L744.66,224.9 C742.27,220.13 737.19,216.37 730.19,216.37 C721.02,216.37 714.13,223 714.13,231.74 C714.13,240.48 721.02,247.11 730.19,247.11 C737.5,247.11 742.75,243.03 745.03,237.83 L741.43,235.98 C739.89,240.43 735.81,243.56 730.19,243.56 C723.14,243.56 718.37,238.68 718.37,231.74 L718.37,231.74 z M730.52,265.12 L726.49,265.12 L726.49,294.27 L730.52,294.27 L730.52,273.17 C733.7,269.94 737.3,268.19 741.07,268.19 C745.68,268.19 749.28,270.63 749.28,275.56 L749.28,294.27 L753.36,294.27 L753.36,273.97 C753.36,267.24 747.53,264.32 742.02,264.32 C737.52,264.32 733.75,266.44 730.52,269.62 L730.52,265.11 L730.52,265.11 z M755.08,246.32 L755.08,225.22 C758.26,221.99 761.86,220.24 765.63,220.24 C770.24,220.24 773.85,222.68 773.85,227.61 L773.85,246.32 L777.93,246.32 L777.93,226.02 C777.93,219.29 772.1,216.37 766.59,216.37 C762.08,216.37 758.32,218.49 755.09,221.67 L755.09,206.57 L751.06,206.57 L751.06,246.32 L755.09,246.32 z M759.79,285.95 C759.79,292.57 765.99,295.07 771.19,295.07 C776.76,295.07 781.26,293.11 784.55,289.45 C784.97,292.58 786.4,295.07 789.69,295.07 C791.39,295.07 792.82,294.49 793.77,293.59 L793.77,290.41 C793.19,291.05 792.34,291.31 791.38,291.31 C789.37,291.31 788.52,290.04 788.52,287.28 L788.52,272.12 C788.52,267.67 783.54,264.33 775.32,264.33 C768.38,264.33 763.77,267.25 760.85,270.43 L763.18,273.4 C766.36,269.69 770.44,267.89 775.53,267.89 C780.94,267.89 784.43,269.8 784.43,272.5 C784.43,275.57 781.2,276.21 772.66,277.06 C765.5,277.75 759.78,279.87 759.78,285.96 L759.78,285.96 z M764.19,285.95 C764.19,282.61 766.95,281.07 773.41,280.44 C777.54,279.96 782.21,279.22 784.43,277.63 L784.43,285.95 C781.04,289.87 777.06,291.62 772.13,291.62 C767.2,291.62 764.18,289.39 764.18,285.95 L764.18,285.95 z M802.52,254.52 L798.49,254.52 L798.49,294.27 L802.52,294.27 L802.52,254.52 L802.52,254.52 z M809.15,279.69 C809.15,288.22 816.2,295.06 825.9,295.06 C833.85,295.06 838.57,291.03 840.85,286.32 L836.87,284.62 C835.23,288.44 832.15,291.51 825.9,291.51 C819.17,291.51 814.13,287.43 813.5,281.02 L841.22,281.02 C841.27,280.54 841.33,279.48 841.33,278.64 C841.33,271.38 834.55,264.33 825.32,264.33 C816.09,264.33 809.15,271.33 809.15,279.7 L809.15,279.7 z M813.66,277.47 C814.61,271.85 819.28,267.88 825.32,267.88 C831.36,267.88 836.13,272.12 836.87,277.47 L813.65,277.47 z M886.38,257.17 L864.7,257.17 L864.7,294.27 L869.1,294.27 L869.1,276.99 L886.43,276.99 C895.02,276.99 899.26,273.39 899.26,267.19 C899.26,260.46 894.97,257.17 886.38,257.17 L886.38,257.17 z M869.1,261.2 L887.49,261.2 C892.1,261.2 894.86,263.43 894.86,267.14 C894.86,270.85 892.16,272.97 887.49,272.97 L869.1,272.97 L869.1,261.2 L869.1,261.2 z M879.52,246.32 L879.52,225.22 C882.7,221.99 886.3,220.24 890.07,220.24 C894.68,220.24 898.29,222.68 898.29,227.61 L898.29,246.32 L902.37,246.32 L902.37,226.02 C902.37,219.29 896.54,216.37 891.03,216.37 C886.52,216.37 882.76,218.49 879.53,221.67 L879.53,217.17 L875.5,217.17 L875.5,246.32 L879.53,246.32 z M902.81,279.69 C902.81,288.54 909.81,295.06 919.03,295.06 C928.25,295.06 935.2,288.54 935.2,279.69 C935.2,270.84 928.15,264.32 919.03,264.32 C909.91,264.32 902.81,270.84 902.81,279.69 L902.81,279.69 z M907.05,279.69 C907.05,272.75 912.24,267.92 919.03,267.92 C925.82,267.92 930.96,272.74 930.96,279.69 C930.96,286.64 925.66,291.46 919.03,291.46 C912.4,291.46 907.05,286.64 907.05,279.69 L907.05,279.69 z M936.8,240.49 L936.8,246.32 L940.88,246.32 L940.88,206.57 L936.8,206.57 L936.8,223 C934.36,219.24 930.07,216.37 924.34,216.37 C916.07,216.37 908.86,222.89 908.86,231.74 C908.86,240.59 916.07,247.11 924.34,247.11 C930.06,247.11 934.36,244.3 936.8,240.49 L936.8,240.49 z M936.8,231.74 C936.8,238.26 931.92,243.56 925.09,243.56 C918.26,243.56 913.11,238.58 913.11,231.74 C913.11,224.9 918.41,219.92 925.09,219.92 C931.77,219.92 936.8,225.27 936.8,231.74 L936.8,231.74 z M946.04,254.52 L942.01,254.52 L942.01,294.27 L946.04,294.27 L946.04,254.52 L946.04,254.52 z M953.91,257.2 L953.91,258.2 C953.91,259.59 955.04,260.72 956.43,260.72 C957.82,260.72 958.95,259.59 958.95,258.2 L958.95,257.2 C958.95,255.81 957.82,254.68 956.43,254.68 C955.04,254.68 953.91,255.81 953.91,257.2 L953.91,257.2 z M958.46,265.12 L954.43,265.12 L954.43,294.27 L958.46,294.27 L958.46,265.12 L958.46,265.12 z M989.79,257.2 L989.79,258.2 C989.79,259.59 990.92,260.72 992.31,260.72 C993.7,260.72 994.83,259.59 994.83,258.2 L994.83,257.2 C994.83,255.81 993.7,254.68 992.31,254.68 C990.92,254.68 989.79,255.81 989.79,257.2 L989.79,257.2 z M994.33,265.12 L990.3,265.12 L990.3,294.27 L994.33,294.27 L994.33,265.12 L994.33,265.12 z" fill="#000000"/>
  </g>
</svg>
